# xmcd
#
# Track frame offsets: 
#        150
#        13449
#        27822
#        41851
#        56624
#        71093
#        85916
#        98512
#        114696
#        131212
#        146916
#        164775
#        178999
#        195748
#        211412
#        227021
#        242009
#        257516
#        270556
#        281287
#
# Disc length: 3918 seconds
#
# Revision: 0
# Processed by: cddbd v1.5.2PL0 Copyright (c) Steve Scherf et al.
# Submitted via: ExactAudioCopyFreeDBPlugin 1.0
#
DISCID=320f4c14
DTITLE=สายัณห์ สัญญา - กินอะไรถึงสวย
DYEAR=2010
DGENRE=ไทยลูกทุ่ง
TTITLE0=กินอะไรถึงสวย
TTITLE1=ลานเทสะเทือน
TTITLE2=นางกวักมหาเสน่ห์
TTITLE3=คาถามัดใจ
TTITLE4=สี่ปีที่คอย
TTITLE5=คิดถึงเธอแทบขาดใจ
TTITLE6=ขอผมเถอะ
TTITLE7=จากก่อนวิวาห์
TTITLE8=รักจากใจ
TTITLE9=หวานเป็นลมขมเป็นยา
TTITLE10=ขยะมนุษย์
TTITLE11=สายัณห์ผันเงิน
TTITLE12=เสียงครวญจากลูกเขย
TTITLE13=หนุ่มรำโทน
TTITLE14=กลองยาวชาวทุ่ง
TTITLE15=ขวัญใจไอ้ทุย
TTITLE16=แม่ดอกซอมพอ
TTITLE17=เกลียดคนตาหวาน
TTITLE18=ใจนางเหมือนทางลม
TTITLE19=เห็นหน้าน้องแล้วท้องอิ่ม
EXTD=
EXTT0=
EXTT1=
EXTT2=
EXTT3=
EXTT4=
EXTT5=
EXTT6=
EXTT7=
EXTT8=
EXTT9=
EXTT10=
EXTT11=
EXTT12=
EXTT13=
EXTT14=
EXTT15=
EXTT16=
EXTT17=
EXTT18=
EXTT19=
PLAYORDER=
